<svg width="40" height="40" viewBox="0 0 40 40" fill="none" xmlns="http://www.w3.org/2000/svg">
<path d="M39.2387 26.724C38.8179 26.724 38.476 26.3833 38.476 25.9627V2.6006L25.5484 15.5282C25.2516 15.825 24.769 15.825 24.4722 15.5282C24.1741 15.2301 24.1741 14.7487 24.4722 14.4506L38.6993 0.223563C38.9173 0.00546703 39.2451 -0.0602755 39.529 0.0583752C39.8142 0.175796 40 0.453272 40 0.761737V25.9627C40 26.3833 39.6593 26.724 39.2387 26.724ZM0.761694 40C0.34104 40 0.000365347 39.6594 0.000365347 39.2386V12.6866C0.000365347 12.3782 0.184851 12.1008 0.470089 11.9833C0.755229 11.8646 1.08177 11.9305 1.29977 12.1472L14.5758 25.4245C14.8739 25.7214 14.8739 26.204 14.5758 26.5007C14.2791 26.7988 13.7964 26.7988 13.4983 26.5007L1.52302 14.5255V39.2386C1.52302 39.6594 1.18233 40 0.761694 40ZM39.2387 40C39.0438 40 38.8489 39.9251 38.6993 39.7768L0.223619 1.29981C-0.0745397 1.00304 -0.0745397 0.520414 0.223619 0.223563C0.520373 -0.0744987 1.00302 -0.0744987 1.29977 0.223563L39.7768 38.7006C40.0736 38.9973 40.0736 39.48 39.7768 39.7768C39.6271 39.9251 39.4322 40 39.2387 40Z" fill="#F6F6F6"/>
</svg>
