<svg width="120" height="120" viewBox="0 0 120 120" fill="none" xmlns="http://www.w3.org/2000/svg">
<rect width="120" height="120" rx="60" fill="#DE3906"/>
<path d="M79 34.0031H71.6917C71.7729 33.9343 71.8563 33.8677 71.9354 33.7947C72.5681 33.2326 73.0781 32.546 73.4333 31.7778C73.7886 31.0096 73.9815 30.1763 74 29.3302C74.0274 28.4045 73.8653 27.483 73.5236 26.6222C73.1819 25.7615 72.668 24.9796 72.0132 24.3247C71.3585 23.6697 70.5768 23.1555 69.7161 22.8136C68.8555 22.4717 67.934 22.3093 67.0083 22.3364C66.1618 22.3546 65.3282 22.5474 64.5596 22.9027C63.791 23.2579 63.104 23.768 62.5417 24.401C61.7637 25.303 61.1311 26.3208 60.6667 27.4177C60.2023 26.3208 59.5697 25.303 58.7917 24.401C58.2293 23.768 57.5423 23.2579 56.7737 22.9027C56.0052 22.5474 55.1715 22.3546 54.325 22.3364C53.3993 22.3093 52.4779 22.4717 51.6172 22.8136C50.7565 23.1555 49.9748 23.6697 49.3201 24.3247C48.6654 24.9796 48.1514 25.7615 47.8097 26.6222C47.4681 27.483 47.306 28.4045 47.3333 29.3302C47.3519 30.1763 47.5448 31.0096 47.9 31.7778C48.2553 32.546 48.7652 33.2326 49.3979 33.7947C49.4771 33.8635 49.5604 33.9302 49.6417 34.0031H42.3333C41.4493 34.0031 40.6014 34.3543 39.9763 34.9794C39.3512 35.6045 39 36.4524 39 37.3364V44.0031C39 44.8871 39.3512 45.735 39.9763 46.3601C40.6014 46.9852 41.4493 47.3364 42.3333 47.3364V60.6697C42.3333 61.5538 42.6845 62.4016 43.3096 63.0268C43.9348 63.6519 44.7826 64.0031 45.6667 64.0031H75.6667C76.5507 64.0031 77.3986 63.6519 78.0237 63.0268C78.6488 62.4016 79 61.5538 79 60.6697V47.3364C79.8841 47.3364 80.7319 46.9852 81.357 46.3601C81.9821 45.735 82.3333 44.8871 82.3333 44.0031V37.3364C82.3333 36.4524 81.9821 35.6045 81.357 34.9794C80.7319 34.3543 79.8841 34.0031 79 34.0031ZM65.0417 26.6093C65.3056 26.318 65.6269 26.0844 65.9854 25.923C66.3439 25.7617 66.7319 25.6762 67.125 25.6718H67.2271C67.6879 25.6747 68.1434 25.7695 68.5671 25.9507C68.9907 26.1319 69.3739 26.3959 69.6943 26.7271C70.0146 27.0583 70.2656 27.4501 70.4326 27.8795C70.5996 28.309 70.6792 28.7675 70.6667 29.2281C70.6623 29.6212 70.5768 30.0091 70.4155 30.3676C70.2541 30.7261 70.0205 31.0474 69.7292 31.3114C67.7521 33.0614 64.4708 33.6781 62.4375 33.8947C62.6875 31.6885 63.375 28.4822 65.0417 26.6093ZM51.6896 26.6843C52.3353 26.0387 53.2098 25.6741 54.1229 25.6697H54.225C54.6181 25.6741 55.0061 25.7596 55.3646 25.921C55.7231 26.0823 56.0444 26.3159 56.3083 26.6072C58.0563 28.5822 58.6729 31.8572 58.8896 33.8822C56.8646 33.6739 53.5896 33.0489 51.6146 31.301C51.3233 31.037 51.0896 30.7157 50.9283 30.3572C50.767 29.9987 50.6814 29.6108 50.6771 29.2177C50.6642 28.7494 50.7465 28.2834 50.9191 27.8479C51.0917 27.4124 51.351 27.0166 51.6813 26.6843H51.6896ZM42.3333 37.3364H59V44.0031H42.3333V37.3364ZM45.6667 47.3364H59V60.6697H45.6667V47.3364ZM75.6667 60.6697H62.3333V47.3364H75.6667V60.6697ZM79 44.0031H62.3333V37.3364H79V44.0031Z" fill="#F6F6F6"/>
<path d="M30.5582 85.6853L31.2662 84.0173C31.6262 84.2013 32.0022 84.3413 32.3942 84.4373C32.7862 84.5333 33.1662 84.5893 33.5342 84.6053C33.9022 84.6213 34.2342 84.5973 34.5302 84.5333C34.8342 84.4613 35.0742 84.3533 35.2502 84.2093C35.4262 84.0653 35.5142 83.8773 35.5142 83.6453C35.5142 83.3893 35.4062 83.2053 35.1902 83.0933C34.9822 82.9733 34.7062 82.9133 34.3622 82.9133H32.2142V81.1733H34.1702C34.4902 81.1733 34.7382 81.1093 34.9142 80.9813C35.0902 80.8533 35.1782 80.6813 35.1782 80.4653C35.1782 80.2573 35.1022 80.0933 34.9502 79.9733C34.7982 79.8453 34.5942 79.7573 34.3382 79.7093C34.0822 79.6533 33.7942 79.6333 33.4742 79.6493C33.1542 79.6653 32.8222 79.7253 32.4782 79.8293C32.1342 79.9253 31.8022 80.0573 31.4822 80.2253L30.7862 78.4493C31.3542 78.1693 31.9502 77.9773 32.5742 77.8733C33.1982 77.7693 33.8062 77.7453 34.3982 77.8013C34.9902 77.8573 35.5262 77.9893 36.0062 78.1973C36.4862 78.3973 36.8662 78.6653 37.1462 79.0013C37.4342 79.3373 37.5782 79.7333 37.5782 80.1893C37.5782 80.5893 37.4702 80.9453 37.2542 81.2573C37.0382 81.5693 36.7462 81.8133 36.3782 81.9893C36.0102 82.1653 35.5862 82.2533 35.1062 82.2533L35.1662 81.7493C35.7182 81.7493 36.1982 81.8453 36.6062 82.0373C37.0222 82.2293 37.3422 82.4933 37.5662 82.8293C37.7982 83.1573 37.9142 83.5373 37.9142 83.9693C37.9142 84.3773 37.8062 84.7413 37.5902 85.0613C37.3822 85.3733 37.0902 85.6373 36.7142 85.8533C36.3382 86.0693 35.9062 86.2293 35.4182 86.3333C34.9382 86.4453 34.4222 86.4973 33.8702 86.4893C33.3182 86.4893 32.7582 86.4213 32.1902 86.2853C31.6302 86.1493 31.0862 85.9493 30.5582 85.6853ZM38.119 86.3333L41.827 77.9333H44.167L47.887 86.3333H45.415L42.511 79.0973H43.447L40.543 86.3333H38.119ZM40.147 84.7013L40.759 82.9493H44.863L45.475 84.7013H40.147ZM48.6096 86.3333V77.9333H55.6296V79.7693H50.9496V81.1253H53.1216C54.1456 81.1253 54.9256 81.3413 55.4616 81.7733C56.0056 82.2053 56.2776 82.8293 56.2776 83.6453C56.2776 84.4853 55.9736 85.1453 55.3656 85.6253C54.7576 86.0973 53.9056 86.3333 52.8096 86.3333H48.6096ZM50.9496 84.6293H52.6536C53.0456 84.6293 53.3456 84.5493 53.5536 84.3893C53.7696 84.2293 53.8776 84.0013 53.8776 83.7053C53.8776 83.1133 53.4696 82.8173 52.6536 82.8173H50.9496V84.6293ZM57.2641 86.3333V77.9333H61.1041C61.8721 77.9333 62.5321 78.0573 63.0841 78.3053C63.6441 78.5533 64.0761 78.9133 64.3801 79.3853C64.6841 79.8493 64.8361 80.4013 64.8361 81.0413C64.8361 81.6733 64.6841 82.2213 64.3801 82.6853C64.0761 83.1493 63.6441 83.5093 63.0841 83.7653C62.5321 84.0133 61.8721 84.1373 61.1041 84.1373H58.5841L59.6401 83.1053V86.3333H57.2641ZM59.6401 83.3573L58.5841 82.2653H60.9601C61.4561 82.2653 61.8241 82.1573 62.0641 81.9413C62.3121 81.7253 62.4361 81.4253 62.4361 81.0413C62.4361 80.6493 62.3121 80.3453 62.0641 80.1293C61.8241 79.9133 61.4561 79.8053 60.9601 79.8053H58.5841L59.6401 78.7133V83.3573ZM64.4107 86.3333L68.1187 77.9333H70.4587L74.1787 86.3333H71.7067L68.8027 79.0973H69.7387L66.8347 86.3333H64.4107ZM66.4387 84.7013L67.0507 82.9493H71.1547L71.7667 84.7013H66.4387ZM76.3395 86.3333V79.2893L76.8675 79.8173H73.7595V77.9333H81.2475V79.8173H78.1515L78.6795 79.2893V86.3333H76.3395ZM86.3867 80.6093C87.4107 80.6093 88.2027 80.8373 88.7627 81.2933C89.3307 81.7493 89.6147 82.4333 89.6147 83.3453C89.6147 84.3293 89.2987 85.0733 88.6667 85.5773C88.0347 86.0813 87.1707 86.3333 86.0747 86.3333H82.1027V77.9333H84.4427V80.6093H86.3867ZM85.9187 84.6293C86.3187 84.6293 86.6347 84.5213 86.8667 84.3053C87.1067 84.0893 87.2267 83.7853 87.2267 83.3933C87.2267 82.9933 87.1067 82.7133 86.8667 82.5533C86.6347 82.3853 86.3187 82.3013 85.9187 82.3013H84.4427V84.6293H85.9187ZM27.8817 100.333V91.9333H35.7657V100.333H33.4137V93.2893L33.9417 93.8173H29.7057L30.2217 93.2893V100.333H27.8817ZM41.4494 100.501C40.7774 100.501 40.1574 100.393 39.5894 100.177C39.0214 99.9613 38.5254 99.6573 38.1014 99.2653C37.6854 98.8653 37.3614 98.4013 37.1294 97.8733C36.8974 97.3453 36.7814 96.7653 36.7814 96.1333C36.7814 95.5013 36.8974 94.9213 37.1294 94.3933C37.3614 93.8653 37.6854 93.4053 38.1014 93.0133C38.5254 92.6133 39.0214 92.3053 39.5894 92.0893C40.1574 91.8733 40.7774 91.7653 41.4494 91.7653C42.1294 91.7653 42.7494 91.8733 43.3094 92.0893C43.8774 92.3053 44.3694 92.6133 44.7854 93.0133C45.2014 93.4053 45.5254 93.8653 45.7574 94.3933C45.9974 94.9213 46.1174 95.5013 46.1174 96.1333C46.1174 96.7653 45.9974 97.3493 45.7574 97.8853C45.5254 98.4133 45.2014 98.8733 44.7854 99.2653C44.3694 99.6573 43.8774 99.9613 43.3094 100.177C42.7494 100.393 42.1294 100.501 41.4494 100.501ZM41.4494 98.5333C41.7694 98.5333 42.0654 98.4773 42.3374 98.3653C42.6174 98.2533 42.8574 98.0933 43.0574 97.8853C43.2654 97.6693 43.4254 97.4133 43.5374 97.1173C43.6574 96.8213 43.7174 96.4933 43.7174 96.1333C43.7174 95.7653 43.6574 95.4373 43.5374 95.1493C43.4254 94.8533 43.2654 94.6013 43.0574 94.3933C42.8574 94.1773 42.6174 94.0133 42.3374 93.9013C42.0654 93.7893 41.7694 93.7333 41.4494 93.7333C41.1294 93.7333 40.8294 93.7893 40.5494 93.9013C40.2774 94.0133 40.0374 94.1773 39.8294 94.3933C39.6294 94.6013 39.4694 94.8533 39.3494 95.1493C39.2374 95.4373 39.1814 95.7653 39.1814 96.1333C39.1814 96.4933 39.2374 96.8213 39.3494 97.1173C39.4694 97.4133 39.6294 97.6693 39.8294 97.8853C40.0374 98.0933 40.2774 98.2533 40.5494 98.3653C40.8294 98.4773 41.1294 98.5333 41.4494 98.5333ZM52.4574 99.3013V93.8173H50.0454L50.0094 94.7293C49.9934 95.2173 49.9614 95.6733 49.9134 96.0973C49.8734 96.5213 49.8134 96.9093 49.7334 97.2613C49.6614 97.6133 49.5614 97.9173 49.4334 98.1733C49.3134 98.4213 49.1654 98.6133 48.9894 98.7493L46.4574 98.4493C46.7374 98.4573 46.9654 98.3653 47.1414 98.1733C47.3254 97.9733 47.4694 97.6973 47.5734 97.3453C47.6854 96.9933 47.7654 96.5773 47.8134 96.0973C47.8694 95.6173 47.9094 95.0933 47.9334 94.5253L48.0294 91.9333H54.7974V99.3013H52.4574ZM46.2054 102.025V98.4493H55.9374V102.025H53.7654V100.333H48.3894V102.025H46.2054ZM56.0756 100.333L59.7836 91.9333H62.1236L65.8436 100.333H63.3716L60.4676 93.0973H61.4036L58.4996 100.333H56.0756ZM58.1036 98.7013L58.7156 96.9493H62.8196L63.4316 98.7013H58.1036ZM66.5663 100.333V91.9333H70.4063C71.1743 91.9333 71.8343 92.0573 72.3863 92.3053C72.9463 92.5533 73.3783 92.9133 73.6823 93.3853C73.9863 93.8493 74.1383 94.4013 74.1383 95.0413C74.1383 95.6733 73.9863 96.2213 73.6823 96.6853C73.3783 97.1493 72.9463 97.5093 72.3863 97.7653C71.8343 98.0133 71.1743 98.1373 70.4063 98.1373H67.8863L68.9423 97.1053V100.333H66.5663ZM68.9423 97.3573L67.8863 96.2653H70.2623C70.7583 96.2653 71.1263 96.1573 71.3663 95.9413C71.6143 95.7253 71.7383 95.4253 71.7383 95.0413C71.7383 94.6493 71.6143 94.3453 71.3663 94.1293C71.1263 93.9133 70.7583 93.8053 70.2623 93.8053H67.8863L68.9423 92.7133V97.3573ZM79.2199 100.501C78.5479 100.501 77.9279 100.393 77.3599 100.177C76.7919 99.9613 76.2959 99.6573 75.8719 99.2653C75.4559 98.8653 75.1319 98.4013 74.8999 97.8733C74.6679 97.3453 74.5519 96.7653 74.5519 96.1333C74.5519 95.5013 74.6679 94.9213 74.8999 94.3933C75.1319 93.8653 75.4559 93.4053 75.8719 93.0133C76.2959 92.6133 76.7919 92.3053 77.3599 92.0893C77.9279 91.8733 78.5479 91.7653 79.2199 91.7653C79.8999 91.7653 80.5199 91.8733 81.0799 92.0893C81.6479 92.3053 82.1399 92.6133 82.5559 93.0133C82.9719 93.4053 83.2959 93.8653 83.5279 94.3933C83.7679 94.9213 83.8879 95.5013 83.8879 96.1333C83.8879 96.7653 83.7679 97.3493 83.5279 97.8853C83.2959 98.4133 82.9719 98.8733 82.5559 99.2653C82.1399 99.6573 81.6479 99.9613 81.0799 100.177C80.5199 100.393 79.8999 100.501 79.2199 100.501ZM79.2199 98.5333C79.5399 98.5333 79.8359 98.4773 80.1079 98.3653C80.3879 98.2533 80.6279 98.0933 80.8279 97.8853C81.0359 97.6693 81.1959 97.4133 81.3079 97.1173C81.4279 96.8213 81.4879 96.4933 81.4879 96.1333C81.4879 95.7653 81.4279 95.4373 81.3079 95.1493C81.1959 94.8533 81.0359 94.6013 80.8279 94.3933C80.6279 94.1773 80.3879 94.0133 80.1079 93.9013C79.8359 93.7893 79.5399 93.7333 79.2199 93.7333C78.8999 93.7333 78.5999 93.7893 78.3199 93.9013C78.0479 94.0133 77.8079 94.1773 77.5999 94.3933C77.3999 94.6013 77.2399 94.8533 77.1199 95.1493C77.0079 95.4373 76.9519 95.7653 76.9519 96.1333C76.9519 96.4933 77.0079 96.8213 77.1199 97.1173C77.2399 97.4133 77.3999 97.6693 77.5999 97.8853C77.8079 98.0933 78.0479 98.2533 78.3199 98.3653C78.5999 98.4773 78.8999 98.5333 79.2199 98.5333ZM90.2223 100.333L87.8583 96.3373L89.7663 95.2093L92.8983 100.333H90.2223ZM84.8703 100.333V91.9333H87.2343V100.333H84.8703ZM86.5503 97.1173V95.1973H89.5983V97.1173H86.5503ZM89.9943 96.3853L87.7983 96.1453L90.3783 91.9333H92.8743L89.9943 96.3853Z" fill="#F6F6F6"/>
</svg>
