<svg width="32" height="32" viewBox="0 0 32 32" fill="none" xmlns="http://www.w3.org/2000/svg">
<path d="M17.6409 -0.000465393C19.4408 0.00433449 20.3544 0.0139343 21.1431 0.0363337L21.4535 0.0475334C21.8119 0.0603331 22.1655 0.0763327 22.5927 0.0955322C24.295 0.17553 25.4565 0.444324 26.4757 0.839514C27.5316 1.2459 28.4212 1.79629 29.3107 2.68427C30.1246 3.48382 30.7541 4.45138 31.1554 5.5194C31.5506 6.53858 31.8194 7.70015 31.8994 9.40411C31.9186 9.8297 31.9346 10.1833 31.9474 10.5433L31.957 10.8537C31.981 11.6409 31.9906 12.5544 31.9938 14.3544L31.9954 15.548V17.6439C31.9993 18.8109 31.987 19.9779 31.9586 21.1446L31.949 21.455C31.9362 21.815 31.9202 22.1686 31.901 22.5942C31.821 24.2981 31.549 25.4581 31.1554 26.4789C30.7541 27.5469 30.1246 28.5145 29.3107 29.314C28.5112 30.1279 27.5437 30.7575 26.4757 31.1588C25.4565 31.554 24.295 31.8228 22.5927 31.9028L21.4535 31.9508L21.1431 31.9604C20.3544 31.9828 19.4408 31.994 17.6409 31.9972L16.4474 31.9988H14.3531C13.1856 32.0029 12.018 31.9906 10.8509 31.962L10.5405 31.9524C10.1607 31.938 9.78095 31.9214 9.40133 31.9028C7.69902 31.8228 6.53747 31.554 5.51673 31.1588C4.44931 30.7573 3.48234 30.1277 2.68327 29.314C1.86882 28.5146 1.23872 27.5471 0.836962 26.4789C0.441782 25.4597 0.172995 24.2981 0.0929988 22.5942L0.0450013 21.455L0.0370019 21.1446C0.00750907 19.978 -0.00582502 18.8109 -0.00299622 17.6439V14.3544C-0.00742463 13.1874 0.00430936 12.0204 0.0322021 10.8537L0.0434015 10.5433C0.0562009 10.1833 0.0722 9.8297 0.091399 9.40411C0.171395 7.70015 0.440181 6.54018 0.835361 5.5194C1.23805 4.45094 1.86927 3.48335 2.68487 2.68427C3.48347 1.87077 4.44988 1.24122 5.51673 0.839514C6.53747 0.444324 7.69742 0.17553 9.40133 0.0955322C9.82691 0.0763327 10.1821 0.0603331 10.5405 0.0475334L10.8509 0.0379336C12.0175 0.0095067 13.1845 -0.00276085 14.3515 0.00113445L17.6409 -0.000465393ZM15.9962 7.99934C13.8746 7.99934 11.8398 8.84218 10.3396 10.3424C8.83941 11.8427 7.9966 13.8775 7.9966 15.9991C7.9966 18.1208 8.83941 20.1556 10.3396 21.6559C11.8398 23.1561 13.8746 23.999 15.9962 23.999C18.1178 23.999 20.1525 23.1561 21.6528 21.6559C23.153 20.1556 23.9958 18.1208 23.9958 15.9991C23.9958 13.8775 23.153 11.8427 21.6528 10.3424C20.1525 8.84218 18.1178 7.99934 15.9962 7.99934ZM15.9962 11.1993C16.6265 11.1992 17.2507 11.3232 17.833 11.5643C18.4154 11.8054 18.9446 12.1589 19.3904 12.6046C19.8361 13.0502 20.1898 13.5793 20.4311 14.1616C20.6724 14.7439 20.7966 15.368 20.7968 15.9983C20.7969 16.6287 20.6728 17.2529 20.4317 17.8352C20.1906 18.4176 19.8371 18.9468 19.3915 19.3926C18.9459 19.8384 18.4168 20.192 17.8345 20.4334C17.2522 20.6747 16.6281 20.7989 15.9978 20.799C14.7248 20.799 13.504 20.2933 12.6039 19.3932C11.7037 18.493 11.198 17.2722 11.198 15.9991C11.198 14.7261 11.7037 13.5053 12.6039 12.6051C13.504 11.705 14.7248 11.1993 15.9978 11.1993M24.3974 5.5994C23.867 5.5994 23.3583 5.81011 22.9832 6.18517C22.6082 6.56024 22.3975 7.06893 22.3975 7.59935C22.3975 8.12977 22.6082 8.63847 22.9832 9.01353C23.3583 9.38859 23.867 9.5993 24.3974 9.5993C24.9278 9.5993 25.4365 9.38859 25.8115 9.01353C26.1866 8.63847 26.3973 8.12977 26.3973 7.59935C26.3973 7.06893 26.1866 6.56024 25.8115 6.18517C25.4365 5.81011 24.9278 5.5994 24.3974 5.5994Z" fill="#F6F6F6"/>
</svg>
