<svg width="34" height="28" viewBox="0 0 34 28" fill="none" xmlns="http://www.w3.org/2000/svg">
<path d="M31.1014 0.247703C31.1014 0.247703 34.2466 -0.964296 33.9845 1.97913C33.8971 3.19115 33.1108 7.43315 32.4992 12.0215L30.4024 25.6132C30.4024 25.6132 30.2277 27.6043 28.6551 27.9507C27.0824 28.2969 24.7235 26.7387 24.2866 26.3923C23.9371 26.1327 17.7341 22.2369 15.5498 20.3323C14.9382 19.8129 14.2393 18.774 15.6372 17.562L24.8109 8.90491C25.8593 7.86603 26.9077 5.44203 22.5393 8.38546L10.3078 16.6098C10.3078 16.6098 8.90987 17.4755 6.28887 16.6963L0.609913 14.9649C0.609913 14.9649 -1.48693 13.6663 2.09517 12.3677C10.832 8.29883 21.5783 4.14339 31.1014 0.247703Z" fill="#F6F6F6"/>
</svg>
