<svg width="32" height="32" viewBox="0 0 32 32" fill="none" xmlns="http://www.w3.org/2000/svg">
<path d="M20.0005 30.3337H12.0005C4.76051 30.3337 1.66718 27.2403 1.66718 20.0003V12.0003C1.66718 4.76033 4.76051 1.66699 12.0005 1.66699H20.0005C27.2405 1.66699 30.3338 4.76033 30.3338 12.0003V20.0003C30.3338 27.2403 27.2405 30.3337 20.0005 30.3337ZM12.0005 3.66699C5.85384 3.66699 3.66718 5.85366 3.66718 12.0003V20.0003C3.66718 26.147 5.85384 28.3337 12.0005 28.3337H20.0005C26.1472 28.3337 28.3338 26.147 28.3338 20.0003V12.0003C28.3338 5.85366 26.1472 3.66699 20.0005 3.66699H12.0005Z" fill="#F6F6F6"/>
<path d="M28.6394 10.4795H3.35938C2.81271 10.4795 2.35938 10.0262 2.35938 9.47949C2.35938 8.93283 2.79938 8.47949 3.35938 8.47949H28.6394C29.186 8.47949 29.6394 8.93283 29.6394 9.47949C29.6394 10.0262 29.1994 10.4795 28.6394 10.4795Z" fill="#F6F6F6"/>
<path d="M11.3594 10.2935C10.8127 10.2935 10.3594 9.84014 10.3594 9.29348V2.81348C10.3594 2.26681 10.8127 1.81348 11.3594 1.81348C11.906 1.81348 12.3594 2.26681 12.3594 2.81348V9.29348C12.3594 9.84014 11.906 10.2935 11.3594 10.2935Z" fill="#F6F6F6"/>
<path d="M20.6406 9.69348C20.094 9.69348 19.6406 9.24014 19.6406 8.69348V2.81348C19.6406 2.26681 20.094 1.81348 20.6406 1.81348C21.1873 1.81348 21.6406 2.26681 21.6406 2.81348V8.69348C21.6406 9.25348 21.2006 9.69348 20.6406 9.69348Z" fill="#F6F6F6"/>
<path d="M14.7867 24.1597C14.3067 24.1597 13.8533 24.0397 13.44 23.813C12.5333 23.2797 12 22.213 12 20.8664V17.6664C12 16.3197 12.5333 15.2397 13.4533 14.7064C14.3733 14.173 15.5733 14.253 16.7333 14.933L19.5067 16.533C20.6667 17.1997 21.3467 18.1997 21.3467 19.2664C21.3467 20.333 20.6667 21.333 19.4933 21.9997L16.72 23.5997C16.08 23.973 15.4133 24.1597 14.7867 24.1597ZM14.8 16.3597C14.6667 16.3597 14.5467 16.3864 14.4533 16.4397C14.1733 16.5997 14 17.053 14 17.6664V20.8664C14 21.4664 14.1733 21.9197 14.4533 22.093C14.7333 22.253 15.2133 22.173 15.7333 21.8664L18.5067 20.2664C19.0267 19.9597 19.3467 19.5864 19.3467 19.2664C19.3467 18.9464 19.04 18.573 18.5067 18.2664L15.7333 16.6664C15.3867 16.4664 15.0533 16.3597 14.8 16.3597Z" fill="#F6F6F6"/>
</svg>
