<svg width="24" height="19" viewBox="0 0 24 19" fill="none" xmlns="http://www.w3.org/2000/svg">
<path fill-rule="evenodd" clip-rule="evenodd" d="M12.3016 0C13.3019 0 14.328 0.0255751 15.3225 0.0674251L16.4972 0.123225L17.6216 0.189488L18.6746 0.2604L19.6363 0.3348C20.6801 0.413724 21.6625 0.856105 22.4103 1.58402C23.1581 2.31194 23.6234 3.27871 23.7243 4.31404L23.7711 4.8081L23.8588 5.86597C23.9407 6.96221 24.0016 8.15726 24.0016 9.3C24.0016 10.4427 23.9407 11.6378 23.8588 12.734L23.7711 13.7919L23.7243 14.286C23.6234 15.3215 23.1579 16.2884 22.4099 17.0163C21.6618 17.7443 20.6792 18.1865 19.6351 18.2652L18.6757 18.3384L17.6227 18.4105L16.4972 18.4768L15.3225 18.5326C14.3161 18.5759 13.3089 18.5984 12.3016 18.6C11.2942 18.5984 10.287 18.5759 9.28062 18.5326L8.10594 18.4768L6.98157 18.4105L5.92857 18.3384L4.96683 18.2652C3.92297 18.1863 2.94063 17.7439 2.19281 17.016C1.445 16.2881 0.979696 15.3213 0.878852 14.286L0.832053 13.7919L0.744302 12.734C0.655187 11.5914 0.607576 10.446 0.601562 9.3C0.601563 8.15726 0.662402 6.96221 0.744302 5.86597L0.832053 4.8081L0.878852 4.31404C0.979656 3.27889 1.4448 2.31227 2.19237 1.58438C2.93994 0.856482 3.92201 0.413985 4.96566 0.3348L5.92623 0.2604L6.97923 0.189488L8.10477 0.123225L9.27945 0.0674251C10.2862 0.0240954 11.2938 0.00161539 12.3016 0ZM9.96156 6.48094V12.1191C9.96156 12.6561 10.5466 12.9909 11.0146 12.7236L15.9286 9.9045C16.0355 9.84334 16.1243 9.75526 16.1861 9.64914C16.2478 9.54301 16.2803 9.42259 16.2803 9.3C16.2803 9.17741 16.2478 9.05699 16.1861 8.95086C16.1243 8.84474 16.0355 8.75666 15.9286 8.6955L11.0146 5.8776C10.9078 5.81636 10.7867 5.78413 10.6635 5.78415C10.5402 5.78417 10.4191 5.81644 10.3124 5.87771C10.2056 5.93898 10.117 6.0271 10.0554 6.13319C9.99386 6.23929 9.96148 6.35963 9.96156 6.4821V6.48094Z" fill="#F6F6F6"/>
</svg>
